<?xml version="1.0" encoding="UTF-8" standalone="no"?>
<svg
   xmlns:dc="http://purl.org/dc/elements/1.1/"
   xmlns:cc="http://creativecommons.org/ns#"
   xmlns:rdf="http://www.w3.org/1999/02/22-rdf-syntax-ns#"
   xmlns:svg="http://www.w3.org/2000/svg"
   xmlns="http://www.w3.org/2000/svg"
   xmlns:sodipodi="http://sodipodi.sourceforge.net/DTD/sodipodi-0.dtd"
   xmlns:inkscape="http://www.inkscape.org/namespaces/inkscape"
   sodipodi:docname="logo.svg"
   inkscape:version="1.0 (4035a4fb49, 2020-05-01)"
   id="svg1682"
   version="1.1"
   viewBox="0 0 135 26"
   height="26mm"
   width="135mm">
  <defs
     id="defs1676">
    <rect
       id="rect2383"
       height="11.337622"
       width="12.362244"
       y="67.026146"
       x="82.651894" />
  </defs>
  <sodipodi:namedview
     width="106mm"
     inkscape:window-maximized="1"
     inkscape:window-y="27"
     inkscape:window-x="0"
     inkscape:window-height="1376"
     inkscape:window-width="2560"
     showgrid="false"
     inkscape:document-rotation="0"
     inkscape:current-layer="layer1"
     inkscape:document-units="mm"
     inkscape:cy="278.82471"
     inkscape:cx="172.36978"
     inkscape:zoom="1.7496327"
     inkscape:pageshadow="2"
     inkscape:pageopacity="0.0"
     borderopacity="1.0"
     bordercolor="#666666"
     pagecolor="#ffffff"
     id="base"
     showguides="true"
     inkscape:guide-bbox="true" />
  <metadata
     id="metadata1679">
    <rdf:RDF>
      <cc:Work
         rdf:about="">
        <dc:format>image/svg+xml</dc:format>
        <dc:type
           rdf:resource="http://purl.org/dc/dcmitype/StillImage" />
        <dc:title></dc:title>
      </cc:Work>
    </rdf:RDF>
  </metadata>
  <g
     id="layer1"
     inkscape:groupmode="layer"
     inkscape:label="Layer 1">
    <g
       style="fill:#0963c0;fill-opacity:1"
       transform="matrix(0.09293327,0,0,-0.09293327,-98.968111,1519.2647)"
       id="g1197">
      <path
         id="path1199"
         style="fill:#0963c0;fill-opacity:1;fill-rule:nonzero;stroke:none"
         d="m 1500.42,16246 h -15.25 v 21.9 h 15.25 v 32.1 h 26.99 v -32.1 h 31.44 v -21.9 h -31.44 v -71.5 c 0,-9.6 3.75,-13.6 15.01,-13.6 h 16.43 v -22.3 h -21.12 c -23,0 -37.31,9.6 -37.31,35.9 v 71.5" />
    </g>
    <g
       style="fill:#0963c0;fill-opacity:1"
       transform="matrix(0.09276184,0,0,-0.09276184,-98.968111,1519.2647)"
       id="g1201">
      <path
         id="path1203"
         style="fill:#0963c0;fill-opacity:1;fill-rule:nonzero;stroke:none"
         d="m 1600.74,16244.8 h 71.7 c -0.47,19.9 -16.22,32.6 -36.2,32.6 -18.1,0 -32.68,-12.2 -35.5,-32.6 z m 36.67,-78.5 c -37.13,0 -64.64,26.3 -64.64,66.9 0,40.7 26.33,66.8 64.64,66.8 36.91,0 63,-25.6 63,-63.7 0,-4.5 -0.23,-8.7 -0.94,-13.2 h -98.96 c 1.88,-21.4 17.16,-34.3 36.9,-34.3 16.46,0 25.63,8 30.56,18.1 h 28.91 c -7.28,-22.6 -27.73,-40.6 -59.47,-40.6" />
    </g>
    <g
       style="fill:#0963c0;fill-opacity:1"
       transform="matrix(0.09276184,0,0,-0.09276184,-98.968111,1519.2647)"
       id="g1205">
      <path
         id="path1207"
         style="fill:#0963c0;fill-opacity:1;fill-rule:nonzero;stroke:none"
         d="m 1788.09,16276.7 c -19.98,0 -39.25,-15.7 -39.25,-43.5 0,-27.9 19.27,-43.7 39.25,-43.7 20.22,0 39.49,16.2 39.49,44.2 0,28 -19.27,43 -39.49,43 z m 5.88,23.3 c 34.08,0 60.88,-26.3 60.88,-66.3 0,-39.9 -26.8,-67.4 -60.88,-67.4 -21.39,0 -36.67,10.8 -45.13,20.9 v -80.4 h -26.8 v 191.1 h 26.8 v -19.1 c 8.22,10.9 23.97,21.2 45.13,21.2" />
    </g>
    <g
       style="fill:#0963c0;fill-opacity:1"
       transform="matrix(0.09276184,0,0,-0.09276184,-98.968111,1519.2647)"
       id="g1209">
      <path
         id="path1211"
         style="fill:#0963c0;fill-opacity:1;fill-rule:nonzero;stroke:none"
         d="m 1934.54,16276.7 c -19.98,0 -39.26,-15 -39.26,-43 0,-28 19.28,-44.2 39.26,-44.2 20.22,0 39.25,15.8 39.25,43.7 0,27.8 -19.03,43.5 -39.25,43.5 z m -5.64,23.3 c 21.86,0 36.9,-10.3 44.89,-20.9 v 18.8 h 27.04 v -129.5 h -27.04 v 19.2 c -8.22,-11 -23.73,-21.3 -45.36,-21.3 -33.61,0 -60.65,27.5 -60.65,67.4 0,40 27.04,66.3 61.12,66.3" />
    </g>
    <g
       style="fill:#0963c0;fill-opacity:1"
       transform="matrix(0.09276184,0,0,-0.09276184,-98.968111,1519.2647)"
       id="g1213">
      <path
         id="path1215"
         style="fill:#0963c0;fill-opacity:1;fill-rule:nonzero;stroke:none"
         d="m 2123.3,16240.8 c 0,23.7 -12.93,35.9 -32.43,35.9 -19.75,0 -32.68,-12.2 -32.68,-35.9 v -72.4 h -26.8 v 129.5 h 26.8 v -14.8 c 8.7,10.6 23.04,16.9 38.55,16.9 30.32,0 53.13,-19 53.13,-55.2 v -76.4 h -26.57 v 72.4" />
    </g>
    <g
       style="fill:#0963c0;fill-opacity:1"
       transform="matrix(0.09304283,0,0,-0.09304283,-98.968111,1519.2647)"
       id="g1217">
      <path
         id="path1219"
         style="fill:#0963c0;fill-opacity:1;fill-rule:nonzero;stroke:none"
         d="m 2172.67,16248.7 h 26.71 v -129.1 h -26.71 z m -3.51,34.2 c 0,9.6 7.5,17.1 17.11,17.1 9.37,0 16.87,-7.5 16.87,-17.1 0,-9.6 -7.5,-17.1 -16.87,-17.1 -9.61,0 -17.11,7.5 -17.11,17.1" />
    </g>
    <g
       style="fill:#0963c0;fill-opacity:1"
       transform="matrix(0.09274999,0,0,-0.09274999,-98.968111,1519.2647)"
       id="g1221">
      <path
         id="path1223"
         style="fill:#0963c0;fill-opacity:1;fill-rule:nonzero;stroke:none"
         d="m 2354.21,16170.5 h -26.8 v 15.5 c -8.47,-11.1 -23.04,-17.4 -38.32,-17.4 -30.33,0 -53.37,19 -53.37,55.2 v 76.2 h 26.57 v -72.2 c 0,-23.7 12.93,-35.9 32.44,-35.9 19.75,0 32.68,12.2 32.68,35.9 v 72.2 h 26.8 v -129.5" />
    </g>
    <g
       style="fill:#0963c0;fill-opacity:1"
       transform="matrix(0.09300269,0,0,-0.09300269,-98.968111,1519.2647)"
       id="g1225">
      <path
         id="path1227"
         style="fill:#0963c0;fill-opacity:1;fill-rule:nonzero;stroke:none"
         d="m 2378.29,16300 h 26.73 v -100.8 l 46.89,56.5 h 37.04 l -59.55,-64.7 59.55,-64.5 h -36.1 l -47.83,55.6 v -55.6 h -26.73 v 173.5" />
    </g>
    <g
       style="font-style:normal;font-variant:normal;font-weight:normal;font-stretch:normal;font-size:24.0348px;line-height:1.25;font-family:'URW Gothic';-inkscape-font-specification:'URW Gothic';letter-spacing:0px;word-spacing:0px;fill:#0963c0;fill-opacity:1;stroke:none;stroke-width:0.250362"
       id="text2379"
       transform="scale(0.98178561,1.0185523)"
       aria-label="s">
      <path
         id="path1393"
         style="font-style:normal;font-variant:normal;font-weight:normal;font-stretch:normal;font-size:24.0348px;font-family:'Publica Sans';-inkscape-font-specification:'Publica Sans';fill:#0963c0;fill-opacity:1;stroke-width:0.250362"
         d="m 32.735723,7.0430158 q 2.018548,0 3.30948,1.0092738 1.314403,1.0092738 1.314403,2.5818634 H 35.035929 Q 34.988986,9.8361224 34.331784,9.3432213 33.698054,8.8503201 32.68878,8.8503201 q -0.938859,0 -1.549117,0.4224867 -0.610259,0.4224867 -0.610259,1.0796882 0,0.586787 0.375544,0.938859 0.375543,0.352073 0.774559,0.46943 0.422486,0.117358 1.290931,0.281658 0.751088,0.140829 1.150103,0.234715 0.422487,0.09389 1.197046,0.375543 0.774559,0.281658 1.197045,0.633731 0.422487,0.352072 0.774559,0.985802 0.352073,0.610258 0.352073,1.43176 0,1.596061 -1.361346,2.605335 -1.361347,0.985802 -3.497252,0.985802 -2.159376,0 -3.520722,-1.009273 -1.361346,-1.032746 -1.384818,-2.67575 h 2.394092 q 0.02347,0.844974 0.751087,1.361347 0.727616,0.492901 1.830776,0.492901 1.032745,0 1.689947,-0.445958 0.657201,-0.445959 0.657201,-1.173575 0,-0.352072 -0.1643,-0.610258 -0.140829,-0.281658 -0.328601,-0.422487 -0.187772,-0.1643 -0.586787,-0.281658 -0.375544,-0.140829 -0.657202,-0.187772 -0.258186,-0.07041 -0.774559,-0.1643 -0.891916,-0.117357 -1.525646,-0.281658 -0.610259,-0.1643 -1.408289,-0.539844 -0.79803,-0.375544 -1.243989,-1.056217 -0.422486,-0.704144 -0.422486,-1.689947 0,-1.5960605 1.26746,-2.5818628 1.290931,-0.9858024 3.379893,-0.9858024 z" />
    </g>
    <g
       style="fill:#0963c0;fill-opacity:1"
       transform="matrix(0.80290426,0,0,0.80290426,-33.123621,-77.719408)"
       id="g953">
      <g
         id="g1229"
         transform="matrix(0.09960151,0,0,-0.09960151,-61.459599,1728.8351)"
         style="fill:#0963c0;fill-opacity:1">
        <path
           d="m 1132.26,16296.5 5.77,-23.6 -37.34,-0.1 -3.7,15.1 c -0.53,2.2 0.79,4.3 2.93,4.9 l 27.51,6.7 c 2.14,0.5 4.31,-0.8 4.83,-3"
           style="fill:#0963c0;fill-opacity:1;fill-rule:nonzero;stroke:none"
           id="path1231" />
      </g>
      <g
         id="g1233"
         transform="matrix(0.09870616,0,0,-0.09870616,-61.459599,1728.8351)"
         style="fill:#0963c0;fill-opacity:1">
        <path
           d="m 1196.96,16221.5 -19.18,78.5 -37.21,-2 18.97,-77.7 c 0.27,-1.2 1.28,-2 2.44,-2 h 32.54 c 1.63,0 2.83,1.6 2.44,3.2"
           style="fill:#0963c0;fill-opacity:1;fill-rule:nonzero;stroke:none"
           id="path1235" />
      </g>
      <g
         id="g1237"
         transform="matrix(0.10003896,0,0,-0.10003896,-61.459599,1728.8351)"
         style="fill:#0963c0;fill-opacity:1">
        <path
           d="m 1217.07,16296.6 17.12,-70.2 -37.17,-0.1 -15.07,61.7 c -0.52,2.1 0.79,4.3 2.93,4.8 l 27.38,6.7 c 2.14,0.5 4.29,-0.8 4.81,-2.9"
           style="fill:#0963c0;fill-opacity:1;fill-rule:nonzero;stroke:none"
           id="path1239" />
      </g>
      <g
         id="g1241"
         transform="matrix(0.0988575,0,0,-0.0988575,-61.459599,1728.8351)"
         style="fill:#0963c0;fill-opacity:1">
        <path
           d="m 1303.58,16196.6 -25.25,103.4 -37.16,-2 25.04,-102.6 c 0.28,-1.1 1.28,-1.9 2.44,-1.9 h 32.49 c 1.63,0 2.82,1.5 2.44,3.1"
           style="fill:#0963c0;fill-opacity:1;fill-rule:nonzero;stroke:none"
           id="path1243" />
      </g>
      <g
         id="g1245"
         transform="matrix(0.09960998,0,0,-0.09960998,-61.459599,1728.8351)"
         style="fill:#0963c0;fill-opacity:1">
        <path
           d="m 1204.28,16220.2 -35.27,-8.6 -3.56,14.6 35.27,8.6 z m 75.38,76.9 -213.02,-52 c -11.69,-2.8 -18.85,-14.6 -16,-26.3 l 13.09,-53.6 c 2.86,-11.7 14.64,-18.9 26.33,-16 l 213.02,52 c 11.69,2.9 18.86,14.7 16,26.3 l -13.09,53.7 c -2.85,11.6 -14.64,18.8 -26.33,15.9"
           style="fill:#0963c0;fill-opacity:1;fill-rule:nonzero;stroke:none"
           id="path1247" />
      </g>
    </g>
    <text
       style="font-style:normal;font-weight:normal;font-size:10.5833px;line-height:1.25;font-family:sans-serif;letter-spacing:0px;word-spacing:0px;white-space:pre;shape-inside:url(#rect2383);fill:#000000;fill-opacity:1;stroke:none;"
       id="text2381"
       xml:space="preserve" />
  </g>
</svg>
